<?xml version="1.0" encoding="utf-8"?>
<!-- Generator: Adobe Illustrator 16.0.0, SVG Export Plug-In . SVG Version: 6.00 Build 0)  -->
<!DOCTYPE svg PUBLIC "-//W3C//DTD SVG 1.1//EN" "http://www.w3.org/Graphics/SVG/1.1/DTD/svg11.dtd">
<svg version="1.1" id="Layer_1" xmlns="http://www.w3.org/2000/svg" xmlns:xlink="http://www.w3.org/1999/xlink" x="0px" y="0px"
	 width="159px" height="33.371px" viewBox="0 0 159 33.371" enable-background="new 0 0 159 33.371" xml:space="preserve">
<g>
	<path fill="#FFFFFF" d="M4.718,13.792v1.736H0.91c0,0,0.169-9.053,0.43-13.326c0,0,0.195-1.381,1.493-1.568
		C4.13,0.448,12.593,0,16.569,0c3.975,0,9.519,0.167,12.094,0.335c2.576,0.168,3.528,0.561,3.696,1.792s0.391,13.214,0.391,13.214
		L8.394,15.509L8.73,30.963l4.816,0.111l-0.113-8.23c0,0,0.056-1.286,1.512-1.286h5.767c0,0,1.008,0.055,1.008,1.398v8.23h4.815
		v-14.67h1.848c0,0,0.112,7.055-0.056,10.08c0,0-0.224,4.366-0.336,5.207c-0.112,0.84-0.112,1.008-1.68,1.119
		c-1.567,0.111-6.047,0.057-6.047,0.057v-9.576h-5.151v9.576c0,0-5.487,0.223-7.055-0.113c-0.783-0.055-1.007-0.952-1.007-1.68
		c0,0-0.28-14.838-0.28-16.069c0-1.232,0.559-1.513,1.791-1.623c1.232-0.113,22.285,0.168,22.565,0.168
		c0.279,0-0.168-11.255-0.168-11.255S12.37,1.288,2.907,2.575c-0.28,2.296-0.504,11.087-0.504,11.087L4.718,13.792z"/>
	<path fill="#FFFFFF" d="M64.805,9.95h-4.171l-7.167,16.488l4.06-0.027l1.511-3.836h7.167l1.512,3.863h3.808L64.805,9.95z
		 M60.55,18.628l2.016-4.844l2.183,4.787L60.55,18.628z"/>
	<path fill="#FFFFFF" d="M87.706,17.732c0,0,0.187-1.182,0-4.144c-0.168-2.659-2.939-3.695-2.939-3.695H71.916v16.545l3.444,0.028
		l0.084-5.067h3.358l3.864,5.067l4.367-0.056v-0.477l-3.61-4.535C87.202,21.399,87.706,17.732,87.706,17.732 M84.402,16.081
		c0,1.26-0.672,1.455-0.672,1.455h-8.344v-3.75c0,0,6.72,0.097,7.854,0.097s1.162,0.938,1.162,0.938V16.081z"/>
	<path fill="#FFFFFF" d="M49.968,9.81h-12.15v16.602l3.639,0.027l-0.028-5.15h8.063c2.996,0,3.583-3.808,3.583-3.808v-3.862
		C53.075,11.014,49.968,9.81,49.968,9.81 M49.8,16.081c0,1.26-0.634,1.455-0.634,1.455h-7.877v-3.75c0,0,6.344,0.097,7.414,0.097
		c1.071,0,1.097,0.938,1.097,0.938V16.081z"/>
	<path fill="#FFFFFF" d="M119.285,14.401h0.867l1.792-2.045v-0.867c0,0-1.204-1.596-2.436-1.596h-8.847c0,0-3.751,0.504-3.751,3.723
		v8.959c0,0,0.56,3.695,3.247,3.695h8.231l0.979-0.588v0.784h3.275V16.024h-7.56v3.892h4.34c0,0-0.42,2.491-1.68,2.491h-6.719
		c0,0-0.854-0.055-0.854-0.854v-7.097c0,0,0.267-0.673,1.135-0.673c0.867,0,7.559-0.055,7.559-0.055L119.285,14.401z"/>
	<path fill="#FFFFFF" d="M136.53,9.927h-8.707c0,0-3.808,0.206-3.808,4.502l-0.084,7.111c0,4.479,3.836,4.898,3.836,4.898h8.763
		c0,0,3.947-0.195,3.947-4.675v-7.335C140.478,10.133,136.53,9.927,136.53,9.927 M136.054,22.632h-7.391
		c-1.344,0-1.288-1.288-1.288-1.288v-6.383c0,0-0.056-1.231,1.4-1.231h6.999c1.342,0,1.287,1.176,1.287,1.176v6.494
		C137.174,22.521,136.054,22.632,136.054,22.632"/>
	<polygon fill="#FFFFFF" points="142.27,26.495 142.27,9.959 146.114,9.959 154.4,20.858 154.4,9.884 157.909,9.884 157.909,26.42 
		153.616,26.42 145.815,15.483 145.815,26.495 	"/>
	<path fill="#FFFFFF" d="M99.771,9.894h-4.143l-7.111,16.041v0.504l3.892,0.029l1.567-3.92h7.195l1.399,3.92h4.199L99.771,9.894z
		 M95.461,18.601l2.127-5.039l2.128,4.982L95.461,18.601z"/>
	<polygon fill="#FFFFFF" points="39.266,3.167 40.351,6.357 40.364,6.357 41.391,3.167 42.827,3.167 42.827,7.807 41.872,7.807 
		41.872,4.519 41.859,4.519 40.722,7.807 39.936,7.807 38.798,4.551 38.785,4.551 38.785,7.807 37.83,7.807 37.83,3.167 	"/>
	<path fill="#FFFFFF" d="M46.524,3.167l1.735,4.64h-1.059L46.85,6.772h-1.735L44.75,7.807h-1.026l1.754-4.64H46.524z M46.583,6.013
		l-0.584-1.702h-0.013l-0.604,1.702H46.583z"/>
	<rect x="49.149" y="3.167" fill="#FFFFFF" width="1.021" height="4.64"/>
	<path fill="#FFFFFF" d="M52.334,6.663c0.057,0.108,0.131,0.195,0.224,0.263c0.093,0.067,0.202,0.118,0.329,0.149
		c0.125,0.032,0.255,0.049,0.39,0.049c0.091,0,0.188-0.008,0.292-0.021c0.104-0.017,0.201-0.045,0.292-0.089
		c0.091-0.042,0.166-0.103,0.228-0.179c0.06-0.076,0.09-0.172,0.09-0.289c0-0.125-0.041-0.228-0.12-0.306
		c-0.08-0.077-0.185-0.143-0.315-0.194c-0.13-0.053-0.277-0.098-0.442-0.137c-0.166-0.039-0.331-0.082-0.5-0.131
		c-0.173-0.043-0.342-0.096-0.506-0.159c-0.166-0.062-0.312-0.144-0.442-0.243c-0.13-0.1-0.234-0.224-0.315-0.374
		c-0.08-0.149-0.12-0.331-0.12-0.542c0-0.238,0.05-0.445,0.152-0.621c0.103-0.174,0.235-0.321,0.4-0.438
		c0.165-0.116,0.351-0.202,0.559-0.259c0.208-0.057,0.416-0.086,0.624-0.086c0.243,0,0.476,0.027,0.698,0.082
		c0.224,0.055,0.422,0.142,0.595,0.263c0.173,0.122,0.31,0.276,0.412,0.464c0.103,0.189,0.153,0.418,0.153,0.687h-0.988
		c-0.008-0.138-0.038-0.253-0.088-0.345c-0.05-0.091-0.115-0.162-0.198-0.214c-0.083-0.052-0.177-0.089-0.283-0.11
		c-0.106-0.022-0.222-0.033-0.347-0.033c-0.083,0-0.166,0.01-0.247,0.026c-0.083,0.019-0.158,0.048-0.224,0.091
		c-0.067,0.044-0.123,0.098-0.166,0.162c-0.043,0.065-0.065,0.148-0.065,0.248c0,0.09,0.017,0.164,0.052,0.221
		c0.034,0.056,0.104,0.108,0.205,0.156c0.102,0.047,0.243,0.094,0.422,0.143c0.18,0.047,0.415,0.107,0.705,0.182
		c0.086,0.018,0.207,0.049,0.36,0.095c0.154,0.044,0.307,0.118,0.459,0.218c0.151,0.099,0.282,0.232,0.392,0.4
		c0.111,0.165,0.166,0.379,0.166,0.639c0,0.213-0.042,0.41-0.123,0.592c-0.083,0.182-0.206,0.338-0.368,0.471
		S54.312,7.727,54.072,7.8c-0.24,0.074-0.519,0.11-0.834,0.11c-0.256,0-0.504-0.031-0.745-0.093
		c-0.24-0.064-0.452-0.162-0.637-0.297c-0.184-0.135-0.331-0.305-0.438-0.514c-0.108-0.207-0.161-0.455-0.156-0.74h0.988
		C52.25,6.423,52.277,6.554,52.334,6.663"/>
	<path fill="#FFFFFF" d="M56.214,4.541c0.103-0.296,0.253-0.556,0.448-0.776c0.194-0.221,0.433-0.395,0.717-0.52
		c0.284-0.127,0.604-0.188,0.959-0.188c0.359,0,0.68,0.062,0.961,0.188c0.282,0.125,0.52,0.299,0.714,0.52
		c0.195,0.221,0.345,0.48,0.45,0.776c0.104,0.297,0.156,0.619,0.156,0.966c0,0.338-0.052,0.652-0.156,0.944
		c-0.105,0.293-0.254,0.548-0.45,0.765c-0.195,0.216-0.432,0.386-0.714,0.509c-0.281,0.124-0.602,0.187-0.961,0.187
		c-0.355,0-0.675-0.062-0.959-0.187c-0.284-0.123-0.523-0.293-0.717-0.509c-0.195-0.217-0.346-0.472-0.448-0.765
		c-0.105-0.292-0.156-0.606-0.156-0.944C56.058,5.16,56.108,4.838,56.214,4.541 M57.146,6.074c0.045,0.185,0.118,0.351,0.217,0.498
		c0.1,0.146,0.23,0.265,0.39,0.354c0.161,0.089,0.356,0.134,0.586,0.134c0.229,0,0.424-0.045,0.585-0.134
		c0.16-0.089,0.29-0.207,0.389-0.354c0.101-0.147,0.173-0.313,0.218-0.498c0.046-0.184,0.069-0.372,0.069-0.567
		c0-0.205-0.023-0.401-0.069-0.593c-0.045-0.19-0.118-0.36-0.218-0.509c-0.099-0.15-0.229-0.27-0.389-0.358
		c-0.161-0.088-0.356-0.133-0.585-0.133c-0.23,0-0.425,0.045-0.586,0.133c-0.16,0.089-0.29,0.208-0.39,0.358
		c-0.099,0.148-0.172,0.318-0.217,0.509c-0.045,0.191-0.068,0.388-0.068,0.593C57.078,5.702,57.1,5.891,57.146,6.074"/>
	<polygon fill="#FFFFFF" points="62.815,3.167 64.751,6.279 64.765,6.279 64.765,3.167 65.72,3.167 65.72,7.807 64.699,7.807 
		62.77,4.7 62.757,4.7 62.757,7.807 61.801,7.807 61.801,3.167 	"/>
	<path fill="#FFFFFF" d="M67.883,6.663c0.057,0.108,0.132,0.195,0.225,0.263c0.094,0.067,0.202,0.118,0.328,0.149
		c0.125,0.032,0.256,0.049,0.391,0.049c0.09,0,0.188-0.008,0.292-0.021c0.104-0.017,0.201-0.045,0.292-0.089
		c0.092-0.042,0.167-0.103,0.229-0.179c0.06-0.076,0.09-0.172,0.09-0.289c0-0.125-0.041-0.228-0.12-0.306
		c-0.08-0.077-0.185-0.143-0.315-0.194c-0.129-0.053-0.277-0.098-0.441-0.137c-0.165-0.039-0.331-0.082-0.5-0.131
		c-0.174-0.043-0.343-0.096-0.507-0.159c-0.165-0.062-0.312-0.144-0.442-0.243c-0.13-0.1-0.235-0.224-0.316-0.374
		c-0.08-0.149-0.12-0.331-0.12-0.542c0-0.238,0.05-0.445,0.152-0.621c0.103-0.174,0.235-0.321,0.4-0.438
		c0.164-0.116,0.352-0.202,0.559-0.259c0.209-0.057,0.416-0.086,0.624-0.086c0.243,0,0.476,0.027,0.698,0.082
		c0.224,0.055,0.422,0.142,0.595,0.263c0.173,0.122,0.31,0.276,0.412,0.464c0.103,0.189,0.153,0.418,0.153,0.687h-0.988
		c-0.008-0.138-0.037-0.253-0.088-0.345c-0.05-0.091-0.115-0.162-0.197-0.214c-0.083-0.052-0.177-0.089-0.283-0.11
		c-0.105-0.022-0.223-0.033-0.348-0.033c-0.082,0-0.165,0.01-0.246,0.026c-0.083,0.019-0.158,0.048-0.225,0.091
		c-0.067,0.044-0.123,0.098-0.166,0.162c-0.043,0.065-0.064,0.148-0.064,0.248c0,0.09,0.017,0.164,0.052,0.221
		c0.034,0.056,0.104,0.108,0.204,0.156c0.102,0.047,0.244,0.094,0.423,0.143c0.18,0.047,0.415,0.107,0.705,0.182
		c0.087,0.018,0.207,0.049,0.36,0.095c0.154,0.044,0.307,0.118,0.459,0.218c0.15,0.099,0.281,0.232,0.393,0.4
		c0.11,0.165,0.166,0.379,0.166,0.639c0,0.213-0.042,0.41-0.123,0.592c-0.083,0.182-0.206,0.338-0.368,0.471
		S69.861,7.727,69.621,7.8c-0.24,0.074-0.519,0.11-0.834,0.11c-0.257,0-0.504-0.031-0.745-0.093
		c-0.24-0.064-0.452-0.162-0.637-0.297c-0.184-0.135-0.331-0.305-0.438-0.514c-0.108-0.207-0.161-0.455-0.156-0.74h0.987
		C67.799,6.423,67.826,6.554,67.883,6.663"/>
	<polygon fill="#FFFFFF" points="132.576,28.544 132.576,30.355 134.53,30.355 134.53,28.544 135.591,28.544 135.591,33.265 
		134.53,33.265 134.53,31.228 132.576,31.228 132.576,33.265 131.514,33.265 131.514,28.544 	"/>
	<path fill="#FFFFFF" d="M136.984,29.942c0.108-0.302,0.264-0.565,0.468-0.79c0.201-0.226,0.45-0.401,0.747-0.528
		c0.294-0.129,0.627-0.192,0.997-0.192c0.374,0,0.707,0.063,1.001,0.192c0.292,0.127,0.54,0.303,0.743,0.528
		c0.203,0.225,0.358,0.488,0.467,0.79s0.162,0.63,0.162,0.982c0,0.344-0.054,0.664-0.162,0.961
		c-0.108,0.299-0.264,0.558-0.467,0.777c-0.203,0.221-0.451,0.394-0.743,0.52c-0.294,0.125-0.627,0.188-1.001,0.188
		c-0.37,0-0.703-0.063-0.997-0.188c-0.297-0.126-0.546-0.299-0.747-0.52c-0.204-0.22-0.359-0.479-0.468-0.777
		c-0.108-0.297-0.162-0.617-0.162-0.961C136.822,30.572,136.876,30.244,136.984,29.942 M137.955,31.503
		c0.048,0.188,0.123,0.355,0.227,0.506c0.104,0.149,0.239,0.27,0.406,0.359c0.166,0.092,0.369,0.137,0.608,0.137
		c0.238,0,0.441-0.045,0.608-0.137c0.166-0.09,0.302-0.21,0.405-0.359c0.104-0.15,0.18-0.318,0.227-0.506s0.071-0.38,0.071-0.578
		c0-0.208-0.024-0.408-0.071-0.604c-0.047-0.193-0.123-0.366-0.227-0.518c-0.104-0.152-0.239-0.273-0.405-0.364
		c-0.167-0.089-0.37-0.136-0.608-0.136c-0.239,0-0.442,0.047-0.608,0.136c-0.167,0.091-0.303,0.212-0.406,0.364
		c-0.104,0.151-0.179,0.324-0.227,0.518c-0.047,0.195-0.071,0.396-0.071,0.604C137.884,31.123,137.908,31.315,137.955,31.503"/>
	<polygon fill="#FFFFFF" points="144.294,28.544 145.424,31.79 145.437,31.79 146.506,28.544 148.001,28.544 148.001,33.265 
		147.007,33.265 147.007,29.919 146.993,29.919 145.81,33.265 144.991,33.265 143.808,29.952 143.794,29.952 143.794,33.265 
		142.8,33.265 142.8,28.544 	"/>
	<polygon fill="#FFFFFF" points="153.052,28.544 153.052,29.417 150.503,29.417 150.503,30.429 152.843,30.429 152.843,31.235 
		150.503,31.235 150.503,32.393 153.106,32.393 153.106,33.265 149.44,33.265 149.44,28.544 	"/>
	<path fill="#FFFFFF" d="M155.143,32.101c0.059,0.111,0.136,0.2,0.232,0.268c0.098,0.069,0.211,0.121,0.341,0.152
		c0.131,0.033,0.267,0.051,0.406,0.051c0.095,0,0.196-0.008,0.305-0.023s0.21-0.045,0.305-0.09c0.094-0.043,0.174-0.104,0.235-0.182
		c0.064-0.076,0.096-0.176,0.096-0.294c0-0.128-0.043-0.231-0.126-0.312c-0.083-0.078-0.192-0.145-0.328-0.197
		c-0.134-0.054-0.287-0.1-0.458-0.139c-0.172-0.041-0.346-0.084-0.521-0.133c-0.182-0.045-0.357-0.099-0.528-0.162
		c-0.172-0.064-0.325-0.146-0.46-0.248s-0.244-0.228-0.328-0.381c-0.084-0.152-0.126-0.336-0.126-0.551
		c0-0.243,0.053-0.454,0.16-0.633c0.105-0.178,0.244-0.326,0.416-0.445c0.171-0.119,0.365-0.207,0.581-0.265
		c0.217-0.058,0.433-0.087,0.648-0.087c0.253,0,0.496,0.028,0.728,0.084c0.232,0.055,0.438,0.144,0.619,0.268
		c0.18,0.123,0.323,0.28,0.43,0.472c0.105,0.192,0.158,0.425,0.158,0.698H156.9c-0.009-0.141-0.04-0.258-0.092-0.351
		s-0.121-0.165-0.206-0.218c-0.086-0.053-0.184-0.091-0.294-0.113c-0.111-0.021-0.231-0.033-0.362-0.033
		c-0.085,0-0.172,0.01-0.257,0.027c-0.086,0.018-0.164,0.048-0.233,0.093c-0.07,0.044-0.127,0.099-0.172,0.165
		s-0.068,0.15-0.068,0.252c0,0.092,0.019,0.166,0.055,0.225c0.036,0.057,0.107,0.11,0.213,0.158
		c0.106,0.049,0.253,0.096,0.439,0.146c0.188,0.048,0.431,0.109,0.734,0.185c0.089,0.019,0.215,0.049,0.374,0.098
		c0.16,0.045,0.319,0.119,0.478,0.221c0.158,0.101,0.294,0.236,0.409,0.406s0.172,0.387,0.172,0.651
		c0,0.216-0.042,0.417-0.128,0.602c-0.085,0.186-0.214,0.345-0.382,0.479c-0.17,0.135-0.379,0.239-0.63,0.314
		c-0.249,0.074-0.539,0.111-0.868,0.111c-0.266,0-0.524-0.031-0.774-0.095c-0.25-0.064-0.471-0.165-0.663-0.302
		c-0.191-0.137-0.344-0.311-0.457-0.521c-0.111-0.212-0.166-0.463-0.162-0.754h1.028C155.054,31.856,155.083,31.991,155.143,32.101"
		/>
</g>
<g>
</g>
<g>
</g>
<g>
</g>
<g>
</g>
<g>
</g>
<g>
</g>
</svg>
