<svg xmlns="http://www.w3.org/2000/svg" width="159.667" height="33.265"><g fill="#050505"><path d="M5.052 13.792v1.736h-3.808s.169-9.052.43-13.326c0 0 .195-1.381 1.493-1.568 1.297-.186 9.76-.634 13.736-.634 3.975 0 9.519.167 12.094.335 2.576.168 3.528.561 3.696 1.792.168 1.232.391 13.214.391 13.214l-24.356.168.336 15.454 4.816.111-.113-8.23s.056-1.286 1.512-1.286h5.767s1.008.055 1.008 1.398v8.23h4.815v-14.669h1.848s.112 7.054-.056 10.08c0 0-.224 4.366-.336 5.207-.112.84-.112 1.008-1.68 1.119-1.567.111-6.047.057-6.047.057v-9.576h-5.151v9.576s-5.487.223-7.055-.113c-.783-.055-1.007-.952-1.007-1.68 0 0-.28-14.837-.28-16.069 0-1.232.559-1.512 1.791-1.623 1.232-.113 22.285.168 22.565.168.279 0-.168-11.255-.168-11.255s-18.589-1.12-28.052.167c-.28 2.296-.504 11.087-.504 11.087l2.315.13zM65.139 9.95h-4.171l-7.167 16.489 4.06-.027 1.511-3.836h7.167l1.512 3.863h3.807l-6.719-16.489zm-4.255 8.678l2.016-4.843 2.183 4.787-4.199.056zM88.04 17.732s.187-1.182 0-4.144c-.168-2.658-2.94-3.694-2.94-3.694h-12.85v16.545l3.444.028.084-5.067h3.359l3.863 5.067 4.367-.056v-.477l-3.61-4.535c3.779 0 4.283-3.667 4.283-3.667m-3.304-1.651c0 1.26-.672 1.456-.672 1.456h-8.343v-3.751s6.719.097 7.853.097l1.162.938v1.26zM50.301 9.81h-12.15v16.602l3.639.027-.028-5.15h8.063c2.996 0 3.583-3.808 3.583-3.808v-3.863c0-2.604-3.107-3.808-3.107-3.808m-.168 6.271c0 1.26-.634 1.456-.634 1.456h-7.877v-3.751s6.344.097 7.414.097c1.071 0 1.097.938 1.097.938v1.26zM119.619 14.401h.867l1.792-2.044v-.868s-1.204-1.595-2.436-1.595h-8.847s-3.751.504-3.751 3.723v8.958s.56 3.695 3.247 3.695h8.231l.979-.588v.784h3.275v-10.441h-7.56v3.891h4.34s-.42 2.491-1.68 2.491h-6.719s-.854-.055-.854-.854v-7.097s.267-.672 1.135-.672c.867 0 7.559-.056 7.559-.056l.422.673zM136.863 9.927h-8.707s-3.807.206-3.807 4.502l-.084 7.111c0 4.479 3.836 4.898 3.836 4.898h8.762s3.947-.195 3.947-4.675v-7.335c.001-4.295-3.947-4.501-3.947-4.501m-.476 12.705h-7.391c-1.344 0-1.287-1.288-1.287-1.288v-6.383s-.057-1.232 1.4-1.232h6.998c1.342 0 1.287 1.176 1.287 1.176v6.495c.114 1.121-1.007 1.232-1.007 1.232"/><polygon points="142.604,26.495 142.604,9.959 146.447,9.959 154.734,20.858 154.734,9.884 158.242,9.884 158.242,26.42 153.949,26.42 146.148,15.483 146.148,26.495"/><path d="M100.105 9.893h-4.143l-7.111 16.042v.504l3.892.029 1.567-3.92h7.195l1.399 3.92h4.199l-6.998-16.575zm-4.311 8.708l2.127-5.04 2.128 4.983-4.255.057z"/><polygon points="39.6,3.167 40.685,6.357 40.698,6.357 41.725,3.167 43.16,3.167 43.16,7.807 42.206,7.807 42.206,4.519 42.192,4.519 41.055,7.807 40.269,7.807 39.132,4.551 39.119,4.551 39.119,7.807 38.164,7.807 38.164,3.167"/><path d="M46.858 3.167l1.735 4.64h-1.059l-.351-1.034h-1.735l-.364 1.034h-1.026l1.754-4.64h1.046zm.059 2.846l-.584-1.702h-.013l-.604 1.702h1.201z"/><rect x="49.482" y="3.167" width="1.021" height="4.64"/><path d="M52.667 6.663c.057.109.131.196.224.263s.202.118.329.149c.125.033.255.049.39.049l.292-.022c.104-.016.201-.045.292-.088.091-.042.166-.103.228-.178.06-.076.09-.173.09-.29 0-.125-.041-.228-.12-.306-.08-.078-.185-.143-.315-.195-.13-.052-.277-.097-.442-.136l-.5-.13c-.173-.043-.342-.096-.506-.16-.166-.062-.312-.144-.442-.243s-.234-.224-.315-.374c-.08-.149-.12-.331-.12-.542 0-.238.05-.446.152-.621.103-.174.235-.321.4-.438.165-.117.351-.203.559-.259.208-.056.416-.085.624-.085.243 0 .476.027.698.082.224.054.422.141.595.262.173.122.31.276.412.464.103.188.153.418.153.686h-.988c-.008-.138-.038-.253-.088-.344-.05-.091-.115-.162-.198-.214-.083-.052-.177-.089-.283-.111-.106-.022-.222-.032-.347-.032l-.247.026-.224.091-.166.162c-.043.065-.065.148-.065.247 0 .091.017.164.052.221.034.056.104.109.205.156.102.047.243.095.422.143l.705.182.36.095c.154.044.307.118.459.217.151.099.282.233.392.4.111.165.166.379.166.639 0 .213-.042.41-.123.591-.083.182-.206.339-.368.472-.162.132-.364.235-.604.308-.24.074-.519.11-.834.11-.256 0-.504-.031-.745-.093-.24-.063-.452-.162-.637-.296-.184-.135-.331-.305-.438-.513-.108-.208-.161-.455-.156-.741h.988c0 .155.028.287.084.396"/><path d="M56.547 4.541c.103-.296.253-.555.448-.776.194-.221.433-.395.717-.52.284-.126.604-.188.959-.188.359 0 .68.062.961.188.282.125.52.299.714.52.195.221.345.479.45.776.104.297.156.619.156.965 0 .338-.052.652-.156.945-.105.293-.254.548-.45.764-.195.216-.432.386-.714.509-.281.124-.602.186-.961.186-.355 0-.675-.062-.959-.186-.284-.123-.523-.293-.717-.509-.195-.216-.346-.471-.448-.764-.105-.292-.156-.607-.156-.945 0-.346.051-.668.156-.965m.932 1.533c.045.185.118.35.217.498.1.146.23.265.39.354.161.089.356.134.586.134.229 0 .424-.044.585-.134.16-.088.29-.207.389-.354.101-.148.173-.313.218-.498.046-.184.069-.373.069-.568 0-.204-.023-.401-.069-.592-.045-.19-.118-.36-.218-.509-.099-.15-.229-.269-.389-.358-.161-.088-.356-.133-.585-.133-.23 0-.425.045-.586.133-.16.089-.29.208-.39.358-.099.149-.172.319-.217.509-.045.191-.068.388-.068.592 0 .196.023.385.068.568"/><polygon points="63.148,3.167 65.085,6.279 65.098,6.279 65.098,3.167 66.053,3.167 66.053,7.807 65.033,7.807 63.103,4.7 63.09,4.7 63.09,7.807 62.135,7.807 62.135,3.167"/><path d="M68.217 6.663c.057.109.131.196.224.263s.202.118.329.149c.125.033.255.049.39.049l.292-.022c.104-.016.201-.045.292-.088.091-.042.167-.103.228-.178.06-.076.09-.173.09-.29 0-.125-.041-.228-.12-.306-.08-.078-.185-.143-.315-.195-.13-.052-.277-.097-.442-.136l-.5-.13c-.173-.043-.342-.096-.506-.16-.166-.062-.312-.144-.442-.243s-.235-.224-.316-.374c-.08-.149-.12-.331-.12-.542 0-.238.05-.446.152-.621.103-.174.235-.321.4-.438.165-.117.351-.203.559-.259.208-.056.416-.085.624-.085.243 0 .476.027.698.082.224.054.422.141.595.262.173.122.31.276.412.464.103.188.153.418.153.686h-.988c-.008-.138-.038-.253-.088-.344-.05-.091-.115-.162-.198-.214-.083-.052-.177-.089-.283-.111-.106-.022-.222-.032-.347-.032l-.247.026-.224.091-.166.162c-.043.065-.065.148-.065.247 0 .091.017.164.052.221.034.056.104.109.205.156.102.047.243.095.422.143l.705.182.36.095c.154.044.307.118.459.217.151.099.282.233.393.4.11.166.166.379.166.639 0 .213-.042.41-.123.591-.083.182-.206.339-.368.472-.162.132-.364.235-.604.308-.24.074-.519.11-.834.11-.257 0-.504-.031-.745-.093-.24-.063-.452-.162-.637-.296-.184-.135-.331-.305-.438-.513-.108-.208-.161-.455-.156-.741h.988c0 .155.027.287.084.396"/><polygon points="132.91,28.544 132.91,30.355 134.863,30.355 134.863,28.544 135.924,28.544 135.924,33.265 134.863,33.265 134.863,31.228 132.91,31.228 132.91,33.265 131.848,33.265 131.848,28.544"/><path d="M137.318 29.942c.107-.302.264-.565.467-.79.201-.226.451-.401.748-.528.293-.129.627-.192.996-.192.375 0 .707.063 1.002.192.291.127.539.303.742.528.203.225.359.488.467.79.109.302.162.63.162.982 0 .344-.053.664-.162.961-.107.299-.264.558-.467.777-.203.221-.451.394-.742.52-.295.125-.627.188-1.002.188-.369 0-.703-.063-.996-.188-.297-.126-.547-.299-.748-.52-.203-.22-.359-.479-.467-.777-.109-.297-.162-.617-.162-.961 0-.352.053-.68.162-.982m.971 1.561c.047.188.123.355.227.506.104.149.238.27.406.359.166.092.369.137.607.137s.441-.045.609-.137c.166-.09.301-.21.404-.359.104-.15.18-.318.227-.506s.072-.38.072-.578c0-.208-.025-.408-.072-.604-.047-.193-.123-.366-.227-.518-.104-.152-.238-.273-.404-.364-.168-.089-.371-.136-.609-.136s-.441.047-.607.136c-.168.091-.303.212-.406.364-.104.151-.18.324-.227.518-.047.195-.072.396-.072.604 0 .198.025.39.072.578"/><polygon points="144.627,28.544 145.758,31.79 145.77,31.79 146.84,28.544 148.334,28.544 148.334,33.265 147.34,33.265 147.34,29.919 147.326,29.919 146.143,33.265 145.324,33.265 144.141,29.952 144.127,29.952 144.127,33.265 143.133,33.265 143.133,28.544"/><polygon points="153.385,28.544 153.385,29.417 150.836,29.417 150.836,30.429 153.176,30.429 153.176,31.235 150.836,31.235 150.836,32.393 153.439,32.393 153.439,33.265 149.773,33.265 149.773,28.544"/><path d="M155.477 32.101c.059.111.135.2.232.268.098.069.211.121.34.152.131.033.268.051.406.051l.305-.023c.109-.016.211-.045.305-.09.094-.043.174-.104.236-.182.064-.076.096-.176.096-.294 0-.128-.043-.231-.127-.312-.082-.078-.191-.145-.328-.197-.133-.054-.287-.1-.457-.139l-.521-.133c-.182-.045-.357-.099-.527-.162-.172-.064-.326-.146-.461-.248s-.244-.228-.328-.381c-.084-.152-.125-.336-.125-.551 0-.243.053-.454.16-.633.105-.178.244-.326.416-.445.17-.119.365-.207.58-.265.217-.058.434-.087.648-.087.254 0 .496.028.729.084.232.055.438.144.619.268.18.123.322.28.43.472.105.192.158.425.158.698h-1.027c-.01-.141-.041-.258-.092-.351-.053-.093-.121-.165-.207-.218s-.184-.091-.293-.113c-.111-.021-.232-.033-.363-.033l-.256.027c-.086.018-.164.048-.234.093-.07.044-.127.099-.172.165s-.068.15-.068.252c0 .092.02.166.055.225.037.057.107.11.213.158.107.049.254.096.439.146l.734.185.375.098c.16.045.318.119.477.221.158.101.295.236.41.406s.172.387.172.651c0 .216-.043.417-.129.602-.084.186-.213.345-.381.479-.17.135-.379.239-.631.314-.248.074-.539.111-.867.111-.266 0-.525-.031-.775-.095s-.471-.165-.662-.302-.344-.311-.457-.521c-.111-.212-.166-.463-.162-.754h1.027c-.002.158.027.293.088.403"/></g></svg>