<?xml version="1.0" encoding="utf-8"?>
<!-- Generator: Adobe Illustrator 16.0.0, SVG Export Plug-In . SVG Version: 6.00 Build 0)  -->
<!DOCTYPE svg PUBLIC "-//W3C//DTD SVG 1.1//EN" "http://www.w3.org/Graphics/SVG/1.1/DTD/svg11.dtd">
<svg version="1.1" id="Layer_1" xmlns="http://www.w3.org/2000/svg" xmlns:xlink="http://www.w3.org/1999/xlink" x="0px" y="0px"
	 width="159.667px" height="33.265px" viewBox="0 0 159.667 33.265" enable-background="new 0 0 159.667 33.265"
	 xml:space="preserve">
<g>
	<path fill="#050505" d="M5.052,13.792v1.736H1.244c0,0,0.169-9.052,0.43-13.326c0,0,0.195-1.381,1.493-1.568
		C4.464,0.448,12.927,0,16.903,0c3.975,0,9.519,0.167,12.094,0.335c2.576,0.168,3.528,0.561,3.696,1.792
		c0.168,1.232,0.391,13.214,0.391,13.214L8.728,15.509l0.336,15.454l4.816,0.111l-0.113-8.23c0,0,0.056-1.286,1.512-1.286h5.767
		c0,0,1.008,0.055,1.008,1.398v8.23h4.815V16.517h1.848c0,0,0.112,7.054-0.056,10.08c0,0-0.224,4.366-0.336,5.207
		c-0.112,0.84-0.112,1.008-1.68,1.119c-1.567,0.111-6.047,0.057-6.047,0.057v-9.576h-5.151v9.576c0,0-5.487,0.223-7.055-0.113
		c-0.783-0.055-1.007-0.952-1.007-1.68c0,0-0.28-14.837-0.28-16.069c0-1.232,0.559-1.512,1.791-1.623
		c1.232-0.113,22.285,0.168,22.565,0.168c0.279,0-0.168-11.255-0.168-11.255S12.704,1.288,3.241,2.575
		c-0.28,2.296-0.504,11.087-0.504,11.087L5.052,13.792z"/>
	<path fill="#050505" d="M65.139,9.95h-4.171l-7.167,16.489l4.06-0.027l1.511-3.836h7.167l1.512,3.863h3.807L65.139,9.95z
		 M60.884,18.628l2.016-4.843l2.183,4.787L60.884,18.628z"/>
	<path fill="#050505" d="M88.04,17.732c0,0,0.187-1.182,0-4.144C87.872,10.93,85.1,9.894,85.1,9.894H72.25v16.545l3.444,0.028
		l0.084-5.067h3.359L83,26.467l4.367-0.056v-0.477l-3.61-4.535C87.536,21.399,88.04,17.732,88.04,17.732 M84.736,16.081
		c0,1.26-0.672,1.456-0.672,1.456h-8.343v-3.751c0,0,6.719,0.097,7.853,0.097s1.162,0.938,1.162,0.938V16.081z"/>
	<path fill="#050505" d="M50.301,9.81h-12.15v16.602l3.639,0.027l-0.028-5.15h8.063c2.996,0,3.583-3.808,3.583-3.808v-3.863
		C53.408,11.014,50.301,9.81,50.301,9.81 M50.133,16.081c0,1.26-0.634,1.456-0.634,1.456h-7.877v-3.751c0,0,6.344,0.097,7.414,0.097
		c1.071,0,1.097,0.938,1.097,0.938V16.081z"/>
	<path fill="#050505" d="M119.619,14.401h0.867l1.792-2.044v-0.868c0,0-1.204-1.595-2.436-1.595h-8.847c0,0-3.751,0.504-3.751,3.723
		v8.958c0,0,0.56,3.695,3.247,3.695h8.231l0.979-0.588v0.784h3.275V16.025h-7.56v3.891h4.34c0,0-0.42,2.491-1.68,2.491h-6.719
		c0,0-0.854-0.055-0.854-0.854v-7.097c0,0,0.267-0.672,1.135-0.672c0.867,0,7.559-0.056,7.559-0.056L119.619,14.401z"/>
	<path fill="#050505" d="M136.863,9.927h-8.707c0,0-3.807,0.206-3.807,4.502l-0.084,7.111c0,4.479,3.836,4.898,3.836,4.898h8.762
		c0,0,3.947-0.195,3.947-4.675v-7.335C140.811,10.133,136.863,9.927,136.863,9.927 M136.387,22.632h-7.391
		c-1.344,0-1.287-1.288-1.287-1.288v-6.383c0,0-0.057-1.232,1.4-1.232h6.998c1.342,0,1.287,1.176,1.287,1.176v6.495
		C137.508,22.521,136.387,22.632,136.387,22.632"/>
	<polygon fill="#050505" points="142.604,26.495 142.604,9.959 146.447,9.959 154.734,20.858 154.734,9.884 158.242,9.884 
		158.242,26.42 153.949,26.42 146.148,15.483 146.148,26.495 	"/>
	<path fill="#050505" d="M100.105,9.893h-4.143l-7.111,16.042v0.504l3.892,0.029l1.567-3.92h7.195l1.399,3.92h4.199L100.105,9.893z
		 M95.794,18.601l2.127-5.04l2.128,4.983L95.794,18.601z"/>
	<polygon fill="#050505" points="39.6,3.167 40.685,6.357 40.698,6.357 41.725,3.167 43.16,3.167 43.16,7.807 42.206,7.807 
		42.206,4.519 42.192,4.519 41.055,7.807 40.269,7.807 39.132,4.551 39.119,4.551 39.119,7.807 38.164,7.807 38.164,3.167 	"/>
	<path fill="#050505" d="M46.858,3.167l1.735,4.64h-1.059l-0.351-1.034h-1.735l-0.364,1.034h-1.026l1.754-4.64H46.858z
		 M46.917,6.013l-0.584-1.702h-0.013l-0.604,1.702H46.917z"/>
	<rect x="49.482" y="3.167" fill="#050505" width="1.021" height="4.64"/>
	<path fill="#050505" d="M52.667,6.663c0.057,0.109,0.131,0.196,0.224,0.263c0.093,0.067,0.202,0.118,0.329,0.149
		c0.125,0.033,0.255,0.049,0.39,0.049c0.091,0,0.188-0.007,0.292-0.022c0.104-0.016,0.201-0.045,0.292-0.088
		c0.091-0.042,0.166-0.103,0.228-0.178c0.06-0.076,0.09-0.173,0.09-0.29c0-0.125-0.041-0.228-0.12-0.306
		c-0.08-0.078-0.185-0.143-0.315-0.195c-0.13-0.052-0.277-0.097-0.442-0.136c-0.166-0.039-0.331-0.083-0.5-0.13
		c-0.173-0.043-0.342-0.096-0.506-0.16c-0.166-0.062-0.312-0.144-0.442-0.243c-0.13-0.099-0.234-0.224-0.315-0.374
		c-0.08-0.149-0.12-0.331-0.12-0.542c0-0.238,0.05-0.446,0.152-0.621c0.103-0.174,0.235-0.321,0.4-0.438
		c0.165-0.117,0.351-0.203,0.559-0.259c0.208-0.056,0.416-0.085,0.624-0.085c0.243,0,0.476,0.027,0.698,0.082
		c0.224,0.054,0.422,0.141,0.595,0.262c0.173,0.122,0.31,0.276,0.412,0.464c0.103,0.188,0.153,0.418,0.153,0.686h-0.988
		c-0.008-0.138-0.038-0.253-0.088-0.344c-0.05-0.091-0.115-0.162-0.198-0.214c-0.083-0.052-0.177-0.089-0.283-0.111
		c-0.106-0.022-0.222-0.032-0.347-0.032c-0.083,0-0.166,0.009-0.247,0.026c-0.083,0.018-0.158,0.047-0.224,0.091
		c-0.067,0.043-0.123,0.098-0.166,0.162c-0.043,0.065-0.065,0.148-0.065,0.247c0,0.091,0.017,0.164,0.052,0.221
		c0.034,0.056,0.104,0.109,0.205,0.156c0.102,0.047,0.243,0.095,0.422,0.143c0.18,0.047,0.415,0.107,0.705,0.182
		c0.086,0.018,0.207,0.048,0.36,0.095c0.154,0.044,0.307,0.118,0.459,0.217c0.151,0.099,0.282,0.233,0.392,0.4
		C55.445,5.955,55.5,6.169,55.5,6.429c0,0.213-0.042,0.41-0.123,0.591c-0.083,0.182-0.206,0.339-0.368,0.472
		c-0.162,0.132-0.364,0.235-0.604,0.308c-0.24,0.074-0.519,0.11-0.834,0.11c-0.256,0-0.504-0.031-0.745-0.093
		c-0.24-0.063-0.452-0.162-0.637-0.296c-0.184-0.135-0.331-0.305-0.438-0.513c-0.108-0.208-0.161-0.455-0.156-0.741h0.988
		C52.583,6.422,52.611,6.554,52.667,6.663"/>
	<path fill="#050505" d="M56.547,4.541c0.103-0.296,0.253-0.555,0.448-0.776c0.194-0.221,0.433-0.395,0.717-0.52
		c0.284-0.126,0.604-0.188,0.959-0.188c0.359,0,0.68,0.062,0.961,0.188c0.282,0.125,0.52,0.299,0.714,0.52
		c0.195,0.221,0.345,0.479,0.45,0.776c0.104,0.297,0.156,0.619,0.156,0.965c0,0.338-0.052,0.652-0.156,0.945
		c-0.105,0.293-0.254,0.548-0.45,0.764c-0.195,0.216-0.432,0.386-0.714,0.509c-0.281,0.124-0.602,0.186-0.961,0.186
		c-0.355,0-0.675-0.062-0.959-0.186c-0.284-0.123-0.523-0.293-0.717-0.509c-0.195-0.216-0.346-0.471-0.448-0.764
		c-0.105-0.292-0.156-0.607-0.156-0.945C56.391,5.16,56.442,4.838,56.547,4.541 M57.479,6.074c0.045,0.185,0.118,0.35,0.217,0.498
		c0.1,0.146,0.23,0.265,0.39,0.354c0.161,0.089,0.356,0.134,0.586,0.134c0.229,0,0.424-0.044,0.585-0.134
		c0.16-0.088,0.29-0.207,0.389-0.354c0.101-0.148,0.173-0.313,0.218-0.498c0.046-0.184,0.069-0.373,0.069-0.568
		c0-0.204-0.023-0.401-0.069-0.592c-0.045-0.19-0.118-0.36-0.218-0.509c-0.099-0.15-0.229-0.269-0.389-0.358
		c-0.161-0.088-0.356-0.133-0.585-0.133c-0.23,0-0.425,0.045-0.586,0.133c-0.16,0.089-0.29,0.208-0.39,0.358
		c-0.099,0.149-0.172,0.319-0.217,0.509c-0.045,0.191-0.068,0.388-0.068,0.592C57.411,5.702,57.434,5.891,57.479,6.074"/>
	<polygon fill="#050505" points="63.148,3.167 65.085,6.279 65.098,6.279 65.098,3.167 66.053,3.167 66.053,7.807 65.033,7.807 
		63.103,4.7 63.09,4.7 63.09,7.807 62.135,7.807 62.135,3.167 	"/>
	<path fill="#050505" d="M68.217,6.663c0.057,0.109,0.131,0.196,0.224,0.263c0.093,0.067,0.202,0.118,0.329,0.149
		c0.125,0.033,0.255,0.049,0.39,0.049c0.091,0,0.188-0.007,0.292-0.022c0.104-0.016,0.201-0.045,0.292-0.088
		c0.091-0.042,0.167-0.103,0.228-0.178c0.06-0.076,0.09-0.173,0.09-0.29c0-0.125-0.041-0.228-0.12-0.306
		c-0.08-0.078-0.185-0.143-0.315-0.195c-0.13-0.052-0.277-0.097-0.442-0.136c-0.165-0.039-0.331-0.083-0.5-0.13
		c-0.173-0.043-0.342-0.096-0.506-0.16c-0.166-0.062-0.312-0.144-0.442-0.243c-0.13-0.099-0.235-0.224-0.316-0.374
		c-0.08-0.149-0.12-0.331-0.12-0.542c0-0.238,0.05-0.446,0.152-0.621c0.103-0.174,0.235-0.321,0.4-0.438
		c0.165-0.117,0.351-0.203,0.559-0.259c0.208-0.056,0.416-0.085,0.624-0.085c0.243,0,0.476,0.027,0.698,0.082
		c0.224,0.054,0.422,0.141,0.595,0.262c0.173,0.122,0.31,0.276,0.412,0.464c0.103,0.188,0.153,0.418,0.153,0.686h-0.988
		c-0.008-0.138-0.038-0.253-0.088-0.344c-0.05-0.091-0.115-0.162-0.198-0.214c-0.083-0.052-0.177-0.089-0.283-0.111
		c-0.106-0.022-0.222-0.032-0.347-0.032c-0.083,0-0.166,0.009-0.247,0.026c-0.083,0.018-0.158,0.047-0.224,0.091
		c-0.067,0.043-0.123,0.098-0.166,0.162c-0.043,0.065-0.065,0.148-0.065,0.247c0,0.091,0.017,0.164,0.052,0.221
		c0.034,0.056,0.104,0.109,0.205,0.156c0.102,0.047,0.243,0.095,0.422,0.143c0.18,0.047,0.415,0.107,0.705,0.182
		c0.086,0.018,0.207,0.048,0.36,0.095c0.154,0.044,0.307,0.118,0.459,0.217c0.151,0.099,0.282,0.233,0.393,0.4
		c0.11,0.166,0.166,0.379,0.166,0.639c0,0.213-0.042,0.41-0.123,0.591c-0.083,0.182-0.206,0.339-0.368,0.472
		c-0.162,0.132-0.364,0.235-0.604,0.308c-0.24,0.074-0.519,0.11-0.834,0.11c-0.257,0-0.504-0.031-0.745-0.093
		c-0.24-0.063-0.452-0.162-0.637-0.296c-0.184-0.135-0.331-0.305-0.438-0.513c-0.108-0.208-0.161-0.455-0.156-0.741h0.988
		C68.133,6.422,68.16,6.554,68.217,6.663"/>
	<polygon fill="#050505" points="132.91,28.544 132.91,30.355 134.863,30.355 134.863,28.544 135.924,28.544 135.924,33.265 
		134.863,33.265 134.863,31.228 132.91,31.228 132.91,33.265 131.848,33.265 131.848,28.544 	"/>
	<path fill="#050505" d="M137.318,29.942c0.107-0.302,0.264-0.565,0.467-0.79c0.201-0.226,0.451-0.401,0.748-0.528
		c0.293-0.129,0.627-0.192,0.996-0.192c0.375,0,0.707,0.063,1.002,0.192c0.291,0.127,0.539,0.303,0.742,0.528
		c0.203,0.225,0.359,0.488,0.467,0.79c0.109,0.302,0.162,0.63,0.162,0.982c0,0.344-0.053,0.664-0.162,0.961
		c-0.107,0.299-0.264,0.558-0.467,0.777c-0.203,0.221-0.451,0.394-0.742,0.52c-0.295,0.125-0.627,0.188-1.002,0.188
		c-0.369,0-0.703-0.063-0.996-0.188c-0.297-0.126-0.547-0.299-0.748-0.52c-0.203-0.22-0.359-0.479-0.467-0.777
		c-0.109-0.297-0.162-0.617-0.162-0.961C137.156,30.572,137.209,30.244,137.318,29.942 M138.289,31.503
		c0.047,0.188,0.123,0.355,0.227,0.506c0.104,0.149,0.238,0.27,0.406,0.359c0.166,0.092,0.369,0.137,0.607,0.137
		s0.441-0.045,0.609-0.137c0.166-0.09,0.301-0.21,0.404-0.359c0.104-0.15,0.18-0.318,0.227-0.506s0.072-0.38,0.072-0.578
		c0-0.208-0.025-0.408-0.072-0.604c-0.047-0.193-0.123-0.366-0.227-0.518c-0.104-0.152-0.238-0.273-0.404-0.364
		c-0.168-0.089-0.371-0.136-0.609-0.136s-0.441,0.047-0.607,0.136c-0.168,0.091-0.303,0.212-0.406,0.364
		c-0.104,0.151-0.18,0.324-0.227,0.518c-0.047,0.195-0.072,0.396-0.072,0.604C138.217,31.123,138.242,31.315,138.289,31.503"/>
	<polygon fill="#050505" points="144.627,28.544 145.758,31.79 145.77,31.79 146.84,28.544 148.334,28.544 148.334,33.265 
		147.34,33.265 147.34,29.919 147.326,29.919 146.143,33.265 145.324,33.265 144.141,29.952 144.127,29.952 144.127,33.265 
		143.133,33.265 143.133,28.544 	"/>
	<polygon fill="#050505" points="153.385,28.544 153.385,29.417 150.836,29.417 150.836,30.429 153.176,30.429 153.176,31.235 
		150.836,31.235 150.836,32.393 153.439,32.393 153.439,33.265 149.773,33.265 149.773,28.544 	"/>
	<path fill="#050505" d="M155.477,32.101c0.059,0.111,0.135,0.2,0.232,0.268c0.098,0.069,0.211,0.121,0.34,0.152
		c0.131,0.033,0.268,0.051,0.406,0.051c0.096,0,0.197-0.008,0.305-0.023c0.109-0.016,0.211-0.045,0.305-0.09
		c0.094-0.043,0.174-0.104,0.236-0.182c0.064-0.076,0.096-0.176,0.096-0.294c0-0.128-0.043-0.231-0.127-0.312
		c-0.082-0.078-0.191-0.145-0.328-0.197c-0.133-0.054-0.287-0.1-0.457-0.139c-0.172-0.041-0.346-0.084-0.521-0.133
		c-0.182-0.045-0.357-0.099-0.527-0.162c-0.172-0.064-0.326-0.146-0.461-0.248s-0.244-0.228-0.328-0.381
		c-0.084-0.152-0.125-0.336-0.125-0.551c0-0.243,0.053-0.454,0.16-0.633c0.105-0.178,0.244-0.326,0.416-0.445
		c0.17-0.119,0.365-0.207,0.58-0.265c0.217-0.058,0.434-0.087,0.648-0.087c0.254,0,0.496,0.028,0.729,0.084
		c0.232,0.055,0.438,0.144,0.619,0.268c0.18,0.123,0.322,0.28,0.43,0.472c0.105,0.192,0.158,0.425,0.158,0.698h-1.027
		c-0.01-0.141-0.041-0.258-0.092-0.351c-0.053-0.093-0.121-0.165-0.207-0.218s-0.184-0.091-0.293-0.113
		c-0.111-0.021-0.232-0.033-0.363-0.033c-0.084,0-0.172,0.01-0.256,0.027c-0.086,0.018-0.164,0.048-0.234,0.093
		c-0.07,0.044-0.127,0.099-0.172,0.165s-0.068,0.15-0.068,0.252c0,0.092,0.02,0.166,0.055,0.225c0.037,0.057,0.107,0.11,0.213,0.158
		c0.107,0.049,0.254,0.096,0.439,0.146c0.188,0.048,0.432,0.109,0.734,0.185c0.09,0.019,0.215,0.049,0.375,0.098
		c0.16,0.045,0.318,0.119,0.477,0.221c0.158,0.101,0.295,0.236,0.41,0.406s0.172,0.387,0.172,0.651c0,0.216-0.043,0.417-0.129,0.602
		c-0.084,0.186-0.213,0.345-0.381,0.479c-0.17,0.135-0.379,0.239-0.631,0.314c-0.248,0.074-0.539,0.111-0.867,0.111
		c-0.266,0-0.525-0.031-0.775-0.095c-0.25-0.064-0.471-0.165-0.662-0.302s-0.344-0.311-0.457-0.521
		c-0.111-0.212-0.166-0.463-0.162-0.754h1.027C155.387,31.856,155.416,31.991,155.477,32.101"/>
</g>
<g>
</g>
<g>
</g>
<g>
</g>
<g>
</g>
<g>
</g>
<g>
</g>
</svg>
